<svg width="20" height="20" viewBox="0 0 20 20" fill="none" xmlns="http://www.w3.org/2000/svg">
<path d="M10 0.5C15.2467 0.5 19.5 4.75329 19.5 10C19.5 15.2467 15.2467 19.5 10 19.5C4.75329 19.5 0.5 15.2467 0.5 10C0.5 4.75329 4.75329 0.5 10 0.5ZM11.25 5C11.25 4.30964 10.6904 3.75 10 3.75C9.30964 3.75 8.75 4.30964 8.75 5V11C8.75 11.6904 9.30964 12.25 10 12.25C10.6904 12.25 11.25 11.6904 11.25 11V5ZM10 15.5C10.8284 15.5 11.5 14.8284 11.5 14C11.5 13.1716 10.8284 12.5 10 12.5C9.17157 12.5 8.5 13.1716 8.5 14C8.5 14.8284 9.17157 15.5 10 15.5Z" fill="#E61A2B" stroke="#E61A2B"/>
</svg>
